<svg width="19" height="25" viewBox="0 0 19 25" fill="none" xmlns="http://www.w3.org/2000/svg">
<path d="M8.88184 12.5049C8.6377 11.7236 8.64258 10.2148 8.78418 10.2148C9.19434 10.2148 9.15527 12.0166 8.88184 12.5049ZM8.79883 14.8096C8.42285 15.7959 7.9541 16.9238 7.41211 17.8711C8.30566 17.5293 9.31641 17.0312 10.4834 16.8018C9.86328 16.333 9.26758 15.6592 8.79883 14.8096ZM4.2041 20.9033C4.2041 20.9424 4.84863 20.6396 5.9082 18.9404C5.58105 19.248 4.4873 20.1367 4.2041 20.9033ZM12.1094 7.8125H18.75V23.8281C18.75 24.4775 18.2275 25 17.5781 25H1.17188C0.522461 25 0 24.4775 0 23.8281V1.17188C0 0.522461 0.522461 0 1.17188 0H10.9375V6.64062C10.9375 7.28516 11.4648 7.8125 12.1094 7.8125ZM11.7188 16.2012C10.7422 15.6055 10.0928 14.7852 9.63379 13.5742C9.85352 12.6709 10.2002 11.2988 9.93652 10.4395C9.70703 9.00391 7.86621 9.14551 7.60254 10.1074C7.3584 11.001 7.58301 12.2607 7.99805 13.8672C7.43164 15.2148 6.59668 17.0215 6.00586 18.0566C6.00098 18.0566 6.00098 18.0615 5.99609 18.0615C4.67285 18.7402 2.40234 20.2344 3.33496 21.3818C3.6084 21.7188 4.11621 21.8701 4.38477 21.8701C5.25879 21.8701 6.12793 20.9912 7.36816 18.8525C8.62793 18.4375 10.0098 17.9199 11.2256 17.7197C12.2852 18.2959 13.5254 18.6719 14.3506 18.6719C15.7764 18.6719 15.874 17.1094 15.3125 16.5527C14.6338 15.8887 12.6611 16.0791 11.7188 16.2012ZM18.4082 5.12695L13.623 0.341797C13.4033 0.12207 13.1055 0 12.793 0H12.5V6.25H18.75V5.95215C18.75 5.64453 18.6279 5.34668 18.4082 5.12695ZM14.79 17.5928C14.9902 17.4609 14.668 17.0117 12.7002 17.1533C14.5117 17.9248 14.79 17.5928 14.79 17.5928Z" fill="#333D55"/>
</svg>
